<?xml version="1.0" standalone="no"?>
<!DOCTYPE svg PUBLIC "-//W3C//DTD SVG 20010904//EN"
 "http://www.w3.org/TR/2001/REC-SVG-20010904/DTD/svg10.dtd">
<svg version="1.0" xmlns="http://www.w3.org/2000/svg"
 width="700.000000pt" height="700.000000pt" viewBox="0 0 700.000000 700.000000"
 preserveAspectRatio="xMidYMid meet">
<metadata>
Created by potrace 1.11, written by Peter Selinger 2001-2013
</metadata>
<g transform="translate(0.000000,700.000000) scale(0.100000,-0.100000)"
fill="#000000" stroke="none">
<path d="M3026 6872 c-12 -20 43 -98 147 -207 62 -65 118 -126 125 -136 48
-69 -91 -45 -463 79 -198 66 -223 66 -191 4 8 -15 64 -77 125 -137 61 -60 111
-113 111 -117 0 -10 -28 -16 -105 -23 -38 -3 -90 -8 -115 -10 -25 -3 -76 -7
-115 -10 -215 -16 -315 -30 -315 -46 0 -12 126 -71 210 -98 89 -29 100 -37 69
-50 -331 -137 -506 -232 -713 -391 -150 -114 -157 -119 -175 -113 -9 4 -45 37
-81 73 -139 144 -303 165 -501 65 -171 -87 -352 -313 -403 -506 -16 -61 -16
-223 1 -254 6 -11 17 -33 24 -50 25 -55 119 -138 192 -170 47 -21 69 -37 73
-52 4 -14 -9 -61 -34 -125 -61 -155 -85 -259 -137 -588 -2 -14 -7 -59 -10
-100 -4 -41 -8 -82 -10 -90 -9 -48 -19 -317 -19 -520 0 -250 11 -454 29 -560
2 -14 7 -43 10 -65 6 -45 5 -41 35 -174 27 -120 98 -356 129 -426 5 -11 26
-63 47 -115 141 -353 347 -669 592 -910 238 -233 440 -374 797 -553 279 -140
471 -201 795 -252 88 -14 210 -20 385 -20 205 0 302 8 450 35 28 5 61 11 75
14 81 13 287 75 357 107 24 10 45 19 48 19 11 0 145 66 230 114 98 54 280 172
311 201 6 5 23 19 38 30 93 67 335 305 449 442 120 143 234 306 341 486 42 71
138 271 180 373 81 200 131 368 170 569 21 110 23 122 31 201 3 38 8 83 10 99
22 169 22 798 0 960 -2 17 -7 66 -10 110 -3 44 -8 87 -10 95 -2 8 -7 31 -10
50 -39 239 -68 348 -137 517 -16 40 -27 77 -23 82 3 6 32 24 65 42 70 37 148
116 183 185 100 198 42 448 -151 648 -87 90 -212 166 -318 192 -16 4 -68 8
-116 8 -77 -1 -94 -4 -150 -32 -63 -31 -119 -78 -165 -139 -28 -36 -43 -35
-92 9 -40 36 -197 152 -291 215 -138 92 -377 229 -625 358 -82 43 -195 103
-250 133 -55 30 -134 73 -175 94 -41 22 -102 55 -135 74 -160 89 -246 133
-440 229 -235 116 -334 151 -349 127z"/>
</g>
</svg>
